<?xml version="1.0" standalone="no"?>
<!DOCTYPE svg PUBLIC "-//W3C//DTD SVG 20010904//EN"
 "http://www.w3.org/TR/2001/REC-SVG-20010904/DTD/svg10.dtd">
<svg version="1.0" xmlns="http://www.w3.org/2000/svg"
 width="1536.000000pt" height="1024.000000pt" viewBox="0 0 1536.000000 1024.000000"
 preserveAspectRatio="xMidYMid meet">

<g transform="translate(0.000000,1024.000000) scale(0.100000,-0.100000)"
fill="#000000" stroke="none">
<path d="M8160 6885 c-205 -43 -375 -147 -502 -304 -231 -287 -272 -681 -110
-1053 77 -177 271 -365 440 -428 128 -48 218 -63 357 -57 145 6 242 28 337 79
31 16 61 29 66 27 5 -2 47 -49 92 -104 45 -55 89 -106 96 -114 11 -12 27 -4
107 57 52 40 100 78 106 86 9 11 -2 30 -58 95 -39 45 -83 98 -97 117 l-27 35
50 52 c171 175 261 455 232 728 -13 127 -32 195 -89 314 -105 220 -294 378
-535 451 -77 23 -112 27 -245 30 -106 2 -175 -1 -220 -11z m326 -313 c180 -45
316 -189 376 -397 33 -115 33 -299 0 -405 -23 -74 -69 -168 -99 -202 -14 -16
-22 -9 -95 90 -44 59 -83 107 -86 107 -4 0 -47 -25 -96 -55 -86 -52 -109 -75
-90 -89 26 -18 165 -214 158 -221 -25 -24 -166 -60 -236 -60 -136 0 -230 42
-324 143 -113 122 -166 282 -166 497 0 202 50 347 158 461 124 130 311 178
500 131z"/>
<path d="M9496 5366 c-49 -19 -112 -80 -127 -124 -6 -19 -9 -60 -7 -92 8 -113
85 -182 203 -183 172 -1 268 169 180 320 -44 75 -161 112 -249 79z"/>
<path d="M6489 4693 c-13 -16 -12 -17 4 -4 16 13 21 21 13 21 -2 0 -10 -8 -17
-17z"/>
<path d="M9559 4293 c-13 -16 -12 -17 4 -4 9 7 17 15 17 17 0 8 -8 3 -21 -13z"/>
<path d="M9201 4104 c0 -11 3 -14 6 -6 3 7 2 16 -1 19 -3 4 -6 -2 -5 -13z"/>
<path d="M10211 3184 c0 -11 3 -14 6 -6 3 7 2 16 -1 19 -3 4 -6 -2 -5 -13z"/>
<path d="M8298 3103 c12 -2 30 -2 40 0 9 3 -1 5 -23 4 -22 0 -30 -2 -17 -4z"/>
<path d="M8368 3103 c6 -2 18 -2 25 0 6 3 1 5 -13 5 -14 0 -19 -2 -12 -5z"/>
<path d="M9053 3103 c9 -2 23 -2 30 0 6 3 -1 5 -18 5 -16 0 -22 -2 -12 -5z"/>
<path d="M10378 3103 c7 -3 16 -2 19 1 4 3 -2 6 -13 5 -11 0 -14 -3 -6 -6z"/>
</g>
</svg>
